<mxfile host="app.diagrams.net" modified="2023-02-14T15:26:01.752Z" agent="5.0 (Windows NT 10.0; Win64; x64) AppleWebKit/537.36 (KHTML, like Gecko) Chrome/110.0.0.0 Safari/537.36" etag="cRMdkyhUOs-SmchwkXQm" version="20.8.20" type="github">
  <diagram name="Page-1" id="c4acf3e9-155e-7222-9cf6-157b1a14988f">
    <mxGraphModel dx="1099" dy="1773" grid="1" gridSize="10" guides="1" tooltips="1" connect="1" arrows="1" fold="1" page="1" pageScale="1" pageWidth="850" pageHeight="1100" background="none" math="0" shadow="0">
      <root>
        <mxCell id="0" />
        <mxCell id="1" parent="0" />
        <mxCell id="17acba5748e5396b-1" value="CLI" style="shape=umlFrame;whiteSpace=wrap;html=1;rounded=0;shadow=0;comic=0;labelBackgroundColor=none;strokeWidth=1;fontFamily=Verdana;fontSize=10;align=center;" parent="1" vertex="1">
          <mxGeometry x="40" y="-7" width="820" height="1060" as="geometry" />
        </mxCell>
        <mxCell id="Ps_EMhDIZoAq7-vSNueT-5" value="ContextManager" style="swimlane;fontStyle=1;align=center;verticalAlign=top;childLayout=stackLayout;horizontal=1;startSize=26;horizontalStack=0;resizeParent=1;resizeParentMax=0;resizeLast=0;collapsible=1;marginBottom=0;" vertex="1" parent="1">
          <mxGeometry x="600" y="200" width="160" height="112" as="geometry" />
        </mxCell>
        <mxCell id="Ps_EMhDIZoAq7-vSNueT-6" value="- contextMap: map" style="text;strokeColor=none;fillColor=none;align=left;verticalAlign=top;spacingLeft=4;spacingRight=4;overflow=hidden;rotatable=0;points=[[0,0.5],[1,0.5]];portConstraint=eastwest;" vertex="1" parent="Ps_EMhDIZoAq7-vSNueT-5">
          <mxGeometry y="26" width="160" height="26" as="geometry" />
        </mxCell>
        <mxCell id="Ps_EMhDIZoAq7-vSNueT-7" value="" style="line;strokeWidth=1;fillColor=none;align=left;verticalAlign=middle;spacingTop=-1;spacingLeft=3;spacingRight=3;rotatable=0;labelPosition=right;points=[];portConstraint=eastwest;strokeColor=inherit;" vertex="1" parent="Ps_EMhDIZoAq7-vSNueT-5">
          <mxGeometry y="52" width="160" height="8" as="geometry" />
        </mxCell>
        <mxCell id="Ps_EMhDIZoAq7-vSNueT-8" value="+ setVariable(key, value)" style="text;strokeColor=none;fillColor=none;align=left;verticalAlign=top;spacingLeft=4;spacingRight=4;overflow=hidden;rotatable=0;points=[[0,0.5],[1,0.5]];portConstraint=eastwest;" vertex="1" parent="Ps_EMhDIZoAq7-vSNueT-5">
          <mxGeometry y="60" width="160" height="26" as="geometry" />
        </mxCell>
        <mxCell id="Ps_EMhDIZoAq7-vSNueT-9" value="+ getVariable(key): String" style="text;strokeColor=none;fillColor=none;align=left;verticalAlign=top;spacingLeft=4;spacingRight=4;overflow=hidden;rotatable=0;points=[[0,0.5],[1,0.5]];portConstraint=eastwest;" vertex="1" parent="Ps_EMhDIZoAq7-vSNueT-5">
          <mxGeometry y="86" width="160" height="26" as="geometry" />
        </mxCell>
        <mxCell id="Ps_EMhDIZoAq7-vSNueT-10" value="Application" style="swimlane;fontStyle=1;align=center;verticalAlign=top;childLayout=stackLayout;horizontal=1;startSize=26;horizontalStack=0;resizeParent=1;resizeParentMax=0;resizeLast=0;collapsible=1;marginBottom=0;" vertex="1" parent="1">
          <mxGeometry x="280" y="100" width="210" height="86" as="geometry" />
        </mxCell>
        <mxCell id="Ps_EMhDIZoAq7-vSNueT-11" value="+ contextManager: ContextManager" style="text;strokeColor=none;fillColor=none;align=left;verticalAlign=top;spacingLeft=4;spacingRight=4;overflow=hidden;rotatable=0;points=[[0,0.5],[1,0.5]];portConstraint=eastwest;" vertex="1" parent="Ps_EMhDIZoAq7-vSNueT-10">
          <mxGeometry y="26" width="210" height="26" as="geometry" />
        </mxCell>
        <mxCell id="Ps_EMhDIZoAq7-vSNueT-12" value="" style="line;strokeWidth=1;fillColor=none;align=left;verticalAlign=middle;spacingTop=-1;spacingLeft=3;spacingRight=3;rotatable=0;labelPosition=right;points=[];portConstraint=eastwest;strokeColor=inherit;" vertex="1" parent="Ps_EMhDIZoAq7-vSNueT-10">
          <mxGeometry y="52" width="210" height="8" as="geometry" />
        </mxCell>
        <mxCell id="Ps_EMhDIZoAq7-vSNueT-13" value="+ run()" style="text;strokeColor=none;fillColor=none;align=left;verticalAlign=top;spacingLeft=4;spacingRight=4;overflow=hidden;rotatable=0;points=[[0,0.5],[1,0.5]];portConstraint=eastwest;" vertex="1" parent="Ps_EMhDIZoAq7-vSNueT-10">
          <mxGeometry y="60" width="210" height="26" as="geometry" />
        </mxCell>
        <mxCell id="Ps_EMhDIZoAq7-vSNueT-14" value="Lexer" style="swimlane;fontStyle=1;align=center;verticalAlign=top;childLayout=stackLayout;horizontal=1;startSize=26;horizontalStack=0;resizeParent=1;resizeParentMax=0;resizeLast=0;collapsible=1;marginBottom=0;" vertex="1" parent="1">
          <mxGeometry x="80" y="240" width="160" height="86" as="geometry" />
        </mxCell>
        <mxCell id="Ps_EMhDIZoAq7-vSNueT-15" value="+ field: type" style="text;strokeColor=none;fillColor=none;align=left;verticalAlign=top;spacingLeft=4;spacingRight=4;overflow=hidden;rotatable=0;points=[[0,0.5],[1,0.5]];portConstraint=eastwest;" vertex="1" parent="Ps_EMhDIZoAq7-vSNueT-14">
          <mxGeometry y="26" width="160" height="26" as="geometry" />
        </mxCell>
        <mxCell id="Ps_EMhDIZoAq7-vSNueT-16" value="" style="line;strokeWidth=1;fillColor=none;align=left;verticalAlign=middle;spacingTop=-1;spacingLeft=3;spacingRight=3;rotatable=0;labelPosition=right;points=[];portConstraint=eastwest;strokeColor=inherit;" vertex="1" parent="Ps_EMhDIZoAq7-vSNueT-14">
          <mxGeometry y="52" width="160" height="8" as="geometry" />
        </mxCell>
        <mxCell id="Ps_EMhDIZoAq7-vSNueT-17" value="+ lex(String): [[String]]" style="text;strokeColor=none;fillColor=none;align=left;verticalAlign=top;spacingLeft=4;spacingRight=4;overflow=hidden;rotatable=0;points=[[0,0.5],[1,0.5]];portConstraint=eastwest;" vertex="1" parent="Ps_EMhDIZoAq7-vSNueT-14">
          <mxGeometry y="60" width="160" height="26" as="geometry" />
        </mxCell>
        <mxCell id="Ps_EMhDIZoAq7-vSNueT-18" value="Substituter" style="swimlane;fontStyle=1;align=center;verticalAlign=top;childLayout=stackLayout;horizontal=1;startSize=26;horizontalStack=0;resizeParent=1;resizeParentMax=0;resizeLast=0;collapsible=1;marginBottom=0;" vertex="1" parent="1">
          <mxGeometry x="280" y="360" width="180" height="86" as="geometry" />
        </mxCell>
        <mxCell id="Ps_EMhDIZoAq7-vSNueT-19" value="+ field: type" style="text;strokeColor=none;fillColor=none;align=left;verticalAlign=top;spacingLeft=4;spacingRight=4;overflow=hidden;rotatable=0;points=[[0,0.5],[1,0.5]];portConstraint=eastwest;" vertex="1" parent="Ps_EMhDIZoAq7-vSNueT-18">
          <mxGeometry y="26" width="180" height="26" as="geometry" />
        </mxCell>
        <mxCell id="Ps_EMhDIZoAq7-vSNueT-20" value="" style="line;strokeWidth=1;fillColor=none;align=left;verticalAlign=middle;spacingTop=-1;spacingLeft=3;spacingRight=3;rotatable=0;labelPosition=right;points=[];portConstraint=eastwest;strokeColor=inherit;" vertex="1" parent="Ps_EMhDIZoAq7-vSNueT-18">
          <mxGeometry y="52" width="180" height="8" as="geometry" />
        </mxCell>
        <mxCell id="Ps_EMhDIZoAq7-vSNueT-21" value="+ substitute(String): String" style="text;strokeColor=none;fillColor=none;align=left;verticalAlign=top;spacingLeft=4;spacingRight=4;overflow=hidden;rotatable=0;points=[[0,0.5],[1,0.5]];portConstraint=eastwest;" vertex="1" parent="Ps_EMhDIZoAq7-vSNueT-18">
          <mxGeometry y="60" width="180" height="26" as="geometry" />
        </mxCell>
        <mxCell id="Ps_EMhDIZoAq7-vSNueT-22" value="Parser" style="swimlane;fontStyle=1;align=center;verticalAlign=top;childLayout=stackLayout;horizontal=1;startSize=26;horizontalStack=0;resizeParent=1;resizeParentMax=0;resizeLast=0;collapsible=1;marginBottom=0;" vertex="1" parent="1">
          <mxGeometry x="80" y="480" width="160" height="86" as="geometry" />
        </mxCell>
        <mxCell id="Ps_EMhDIZoAq7-vSNueT-23" value="+ field: type" style="text;strokeColor=none;fillColor=none;align=left;verticalAlign=top;spacingLeft=4;spacingRight=4;overflow=hidden;rotatable=0;points=[[0,0.5],[1,0.5]];portConstraint=eastwest;" vertex="1" parent="Ps_EMhDIZoAq7-vSNueT-22">
          <mxGeometry y="26" width="160" height="26" as="geometry" />
        </mxCell>
        <mxCell id="Ps_EMhDIZoAq7-vSNueT-24" value="" style="line;strokeWidth=1;fillColor=none;align=left;verticalAlign=middle;spacingTop=-1;spacingLeft=3;spacingRight=3;rotatable=0;labelPosition=right;points=[];portConstraint=eastwest;strokeColor=inherit;" vertex="1" parent="Ps_EMhDIZoAq7-vSNueT-22">
          <mxGeometry y="52" width="160" height="8" as="geometry" />
        </mxCell>
        <mxCell id="Ps_EMhDIZoAq7-vSNueT-25" value="+ parse([String]): type" style="text;strokeColor=none;fillColor=none;align=left;verticalAlign=top;spacingLeft=4;spacingRight=4;overflow=hidden;rotatable=0;points=[[0,0.5],[1,0.5]];portConstraint=eastwest;" vertex="1" parent="Ps_EMhDIZoAq7-vSNueT-22">
          <mxGeometry y="60" width="160" height="26" as="geometry" />
        </mxCell>
        <mxCell id="Ps_EMhDIZoAq7-vSNueT-26" value="Executable" style="swimlane;fontStyle=1;align=center;verticalAlign=top;childLayout=stackLayout;horizontal=1;startSize=30;horizontalStack=0;resizeParent=1;resizeParentMax=0;resizeLast=0;collapsible=1;marginBottom=0;" vertex="1" parent="1">
          <mxGeometry x="360" y="560" width="200" height="90" as="geometry" />
        </mxCell>
        <mxCell id="Ps_EMhDIZoAq7-vSNueT-32" value="- arguments : [String]" style="text;strokeColor=none;fillColor=none;align=left;verticalAlign=top;spacingLeft=4;spacingRight=4;overflow=hidden;rotatable=0;points=[[0,0.5],[1,0.5]];portConstraint=eastwest;" vertex="1" parent="Ps_EMhDIZoAq7-vSNueT-26">
          <mxGeometry y="30" width="200" height="26" as="geometry" />
        </mxCell>
        <mxCell id="Ps_EMhDIZoAq7-vSNueT-28" value="" style="line;strokeWidth=1;fillColor=none;align=left;verticalAlign=middle;spacingTop=-1;spacingLeft=3;spacingRight=3;rotatable=0;labelPosition=right;points=[];portConstraint=eastwest;strokeColor=inherit;" vertex="1" parent="Ps_EMhDIZoAq7-vSNueT-26">
          <mxGeometry y="56" width="200" height="8" as="geometry" />
        </mxCell>
        <mxCell id="Ps_EMhDIZoAq7-vSNueT-29" value="+ execute(String stdin): String" style="text;strokeColor=none;fillColor=none;align=left;verticalAlign=top;spacingLeft=4;spacingRight=4;overflow=hidden;rotatable=0;points=[[0,0.5],[1,0.5]];portConstraint=eastwest;" vertex="1" parent="Ps_EMhDIZoAq7-vSNueT-26">
          <mxGeometry y="64" width="200" height="26" as="geometry" />
        </mxCell>
        <mxCell id="Ps_EMhDIZoAq7-vSNueT-36" value="&lt;p style=&quot;margin:0px;margin-top:4px;text-align:center;&quot;&gt;&lt;b&gt;WC&lt;/b&gt;&lt;/p&gt;" style="verticalAlign=top;align=left;overflow=fill;fontSize=12;fontFamily=Helvetica;html=1;" vertex="1" parent="1">
          <mxGeometry x="160" y="680" width="80" height="40" as="geometry" />
        </mxCell>
        <mxCell id="Ps_EMhDIZoAq7-vSNueT-37" value="&lt;p style=&quot;margin:0px;margin-top:4px;text-align:center;&quot;&gt;&lt;b&gt;Echo&lt;/b&gt;&lt;/p&gt;" style="verticalAlign=top;align=left;overflow=fill;fontSize=12;fontFamily=Helvetica;html=1;" vertex="1" parent="1">
          <mxGeometry x="280" y="680" width="80" height="40" as="geometry" />
        </mxCell>
        <mxCell id="Ps_EMhDIZoAq7-vSNueT-38" value="&lt;p style=&quot;margin:0px;margin-top:4px;text-align:center;&quot;&gt;&lt;b&gt;Cat&lt;/b&gt;&lt;/p&gt;" style="verticalAlign=top;align=left;overflow=fill;fontSize=12;fontFamily=Helvetica;html=1;" vertex="1" parent="1">
          <mxGeometry x="160" y="760" width="80" height="40" as="geometry" />
        </mxCell>
        <mxCell id="Ps_EMhDIZoAq7-vSNueT-39" value="&lt;p style=&quot;margin:0px;margin-top:4px;text-align:center;&quot;&gt;&lt;b&gt;PWD&lt;/b&gt;&lt;/p&gt;" style="verticalAlign=top;align=left;overflow=fill;fontSize=12;fontFamily=Helvetica;html=1;" vertex="1" parent="1">
          <mxGeometry x="280" y="760" width="80" height="40" as="geometry" />
        </mxCell>
        <mxCell id="Ps_EMhDIZoAq7-vSNueT-41" value="&lt;p style=&quot;margin:0px;margin-top:4px;text-align:center;&quot;&gt;&lt;b&gt;Exit&lt;/b&gt;&lt;/p&gt;" style="verticalAlign=top;align=left;overflow=fill;fontSize=12;fontFamily=Helvetica;html=1;" vertex="1" parent="1">
          <mxGeometry x="400" y="760" width="80" height="40" as="geometry" />
        </mxCell>
        <mxCell id="Ps_EMhDIZoAq7-vSNueT-42" value="&lt;p style=&quot;margin:0px;margin-top:4px;text-align:center;&quot;&gt;&lt;b&gt;Assign&lt;/b&gt;&lt;/p&gt;" style="verticalAlign=top;align=left;overflow=fill;fontSize=12;fontFamily=Helvetica;html=1;" vertex="1" parent="1">
          <mxGeometry x="400" y="680" width="80" height="40" as="geometry" />
        </mxCell>
        <mxCell id="Ps_EMhDIZoAq7-vSNueT-43" value="GlobalExecutable" style="swimlane;fontStyle=1;align=center;verticalAlign=top;childLayout=stackLayout;horizontal=1;startSize=26;horizontalStack=0;resizeParent=1;resizeParentMax=0;resizeLast=0;collapsible=1;marginBottom=0;" vertex="1" parent="1">
          <mxGeometry x="560" y="680" width="160" height="86" as="geometry" />
        </mxCell>
        <mxCell id="Ps_EMhDIZoAq7-vSNueT-44" value="+ field: type" style="text;strokeColor=none;fillColor=none;align=left;verticalAlign=top;spacingLeft=4;spacingRight=4;overflow=hidden;rotatable=0;points=[[0,0.5],[1,0.5]];portConstraint=eastwest;" vertex="1" parent="Ps_EMhDIZoAq7-vSNueT-43">
          <mxGeometry y="26" width="160" height="26" as="geometry" />
        </mxCell>
        <mxCell id="Ps_EMhDIZoAq7-vSNueT-45" value="" style="line;strokeWidth=1;fillColor=none;align=left;verticalAlign=middle;spacingTop=-1;spacingLeft=3;spacingRight=3;rotatable=0;labelPosition=right;points=[];portConstraint=eastwest;strokeColor=inherit;" vertex="1" parent="Ps_EMhDIZoAq7-vSNueT-43">
          <mxGeometry y="52" width="160" height="8" as="geometry" />
        </mxCell>
        <mxCell id="Ps_EMhDIZoAq7-vSNueT-46" value="+ method(type): type" style="text;strokeColor=none;fillColor=none;align=left;verticalAlign=top;spacingLeft=4;spacingRight=4;overflow=hidden;rotatable=0;points=[[0,0.5],[1,0.5]];portConstraint=eastwest;" vertex="1" parent="Ps_EMhDIZoAq7-vSNueT-43">
          <mxGeometry y="60" width="160" height="26" as="geometry" />
        </mxCell>
        <mxCell id="Ps_EMhDIZoAq7-vSNueT-53" value="" style="endArrow=block;endSize=16;endFill=0;html=1;strokeColor=default;exitX=0.574;exitY=-0.003;exitDx=0;exitDy=0;exitPerimeter=0;rounded=1;" edge="1" parent="1" source="Ps_EMhDIZoAq7-vSNueT-36" target="Ps_EMhDIZoAq7-vSNueT-26">
          <mxGeometry width="160" relative="1" as="geometry">
            <mxPoint x="190" y="690" as="sourcePoint" />
            <mxPoint x="350" y="690" as="targetPoint" />
            <Array as="points">
              <mxPoint x="206" y="610" />
            </Array>
          </mxGeometry>
        </mxCell>
        <mxCell id="Ps_EMhDIZoAq7-vSNueT-54" value="" style="endArrow=block;endSize=16;endFill=0;html=1;strokeColor=default;rounded=1;entryX=0;entryY=0.5;entryDx=0;entryDy=0;" edge="1" parent="1" source="Ps_EMhDIZoAq7-vSNueT-38" target="Ps_EMhDIZoAq7-vSNueT-29">
          <mxGeometry width="160" relative="1" as="geometry">
            <mxPoint x="216" y="690" as="sourcePoint" />
            <mxPoint x="370" y="644" as="targetPoint" />
            <Array as="points">
              <mxPoint x="250" y="740" />
              <mxPoint x="260" y="640" />
            </Array>
          </mxGeometry>
        </mxCell>
        <mxCell id="Ps_EMhDIZoAq7-vSNueT-55" value="" style="endArrow=block;endSize=16;endFill=0;html=1;strokeColor=default;rounded=1;" edge="1" parent="1" source="Ps_EMhDIZoAq7-vSNueT-37">
          <mxGeometry width="160" relative="1" as="geometry">
            <mxPoint x="226" y="700" as="sourcePoint" />
            <mxPoint x="380" y="654" as="targetPoint" />
          </mxGeometry>
        </mxCell>
        <mxCell id="Ps_EMhDIZoAq7-vSNueT-56" value="" style="endArrow=block;endSize=16;endFill=0;html=1;strokeColor=default;rounded=1;" edge="1" parent="1" source="Ps_EMhDIZoAq7-vSNueT-39" target="Ps_EMhDIZoAq7-vSNueT-26">
          <mxGeometry width="160" relative="1" as="geometry">
            <mxPoint x="236" y="710" as="sourcePoint" />
            <mxPoint x="390" y="664" as="targetPoint" />
            <Array as="points">
              <mxPoint x="380" y="730" />
              <mxPoint x="390" y="670" />
            </Array>
          </mxGeometry>
        </mxCell>
        <mxCell id="Ps_EMhDIZoAq7-vSNueT-57" value="" style="endArrow=block;endSize=16;endFill=0;html=1;strokeColor=default;rounded=1;" edge="1" parent="1" source="Ps_EMhDIZoAq7-vSNueT-42" target="Ps_EMhDIZoAq7-vSNueT-26">
          <mxGeometry width="160" relative="1" as="geometry">
            <mxPoint x="246" y="720" as="sourcePoint" />
            <mxPoint x="400" y="674" as="targetPoint" />
          </mxGeometry>
        </mxCell>
        <mxCell id="Ps_EMhDIZoAq7-vSNueT-58" value="" style="endArrow=block;endSize=16;endFill=0;html=1;strokeColor=default;rounded=1;entryX=0.736;entryY=1.09;entryDx=0;entryDy=0;entryPerimeter=0;" edge="1" parent="1" source="Ps_EMhDIZoAq7-vSNueT-41" target="Ps_EMhDIZoAq7-vSNueT-29">
          <mxGeometry width="160" relative="1" as="geometry">
            <mxPoint x="256" y="730" as="sourcePoint" />
            <mxPoint x="410" y="684" as="targetPoint" />
            <Array as="points">
              <mxPoint x="507" y="720" />
            </Array>
          </mxGeometry>
        </mxCell>
        <mxCell id="Ps_EMhDIZoAq7-vSNueT-59" value="" style="endArrow=block;endSize=16;endFill=0;html=1;strokeColor=default;rounded=1;" edge="1" parent="1" source="Ps_EMhDIZoAq7-vSNueT-43" target="Ps_EMhDIZoAq7-vSNueT-26">
          <mxGeometry width="160" relative="1" as="geometry">
            <mxPoint x="266" y="740" as="sourcePoint" />
            <mxPoint x="420" y="694" as="targetPoint" />
          </mxGeometry>
        </mxCell>
      </root>
    </mxGraphModel>
  </diagram>
</mxfile>
